<?xml version="1.0" encoding="UTF-8" standalone="no"?>
<!DOCTYPE svg PUBLIC "-//W3C//DTD SVG 1.1//EN"
 "http://www.w3.org/Graphics/SVG/1.1/DTD/svg11.dtd">
<!-- Generated by graphviz version 2.47.0 (20210316.0004)
 -->
<!-- Title: dbml Pages: 1 -->
<svg width="1918pt" height="1972pt"
 viewBox="0.00 0.00 1918.48 1971.63" xmlns="http://www.w3.org/2000/svg" xmlns:xlink="http://www.w3.org/1999/xlink">
<g id="graph0" class="graph" transform="scale(1 1) rotate(0) translate(4 1967.63)">
<title>dbml</title>
<!-- activity_logs -->
<g id="activity_logs" class="node">
<title>activity_logs</title>
<ellipse fill="none" stroke="black" stroke-width="0" cx="279.31" cy="-1663.81" rx="279.11" ry="299.63"/>
<polygon fill="#1d71b8" stroke="transparent" points="84.31,-1813.81 84.31,-1873.81 475.31,-1873.81 475.31,-1813.81 84.31,-1813.81"/>
<polygon fill="none" stroke="#29235c" points="84.31,-1813.81 84.31,-1873.81 475.31,-1873.81 475.31,-1813.81 84.31,-1813.81"/>
<text text-anchor="start" x="130.44" y="-1835.01" font-family="Helvetica,sans-Serif" font-weight="bold" font-size="32.00" fill="#ffffff"> &#160;&#160;&#160;&#160;&#160;&#160;activity_logs &#160;&#160;&#160;&#160;&#160;&#160;</text>
<polygon fill="#e7e2dd" stroke="transparent" points="84.31,-1753.81 84.31,-1813.81 475.31,-1813.81 475.31,-1753.81 84.31,-1753.81"/>
<polygon fill="none" stroke="#29235c" points="84.31,-1753.81 84.31,-1813.81 475.31,-1813.81 475.31,-1753.81 84.31,-1753.81"/>
<text text-anchor="start" x="95.31" y="-1775.01" font-family="Helvetica,sans-Serif" font-weight="bold" font-size="32.00" fill="#29235c">id</text>
<text text-anchor="start" x="120.2" y="-1775.01" font-family="Helvetica,sans-Serif" font-size="32.00" fill="#29235c"> &#160;&#160;&#160;</text>
<text text-anchor="start" x="348.78" y="-1775.01" font-family="Helvetica,sans-Serif" font-style="italic" font-size="32.00" fill="#29235c">serial</text>
<text text-anchor="start" x="425.22" y="-1775.01" font-family="Helvetica,sans-Serif" font-size="32.00" fill="#29235c"> </text>
<text text-anchor="start" x="434.11" y="-1775.01" font-family="Helvetica,sans-Serif" font-weight="bold" font-size="32.00" fill="#29235c">(!)</text>
<polygon fill="#e7e2dd" stroke="transparent" points="84.31,-1693.81 84.31,-1753.81 475.31,-1753.81 475.31,-1693.81 84.31,-1693.81"/>
<polygon fill="none" stroke="#29235c" points="84.31,-1693.81 84.31,-1753.81 475.31,-1753.81 475.31,-1693.81 84.31,-1693.81"/>
<text text-anchor="start" x="95.31" y="-1714.01" font-family="Helvetica,sans-Serif" font-size="32.00" fill="#29235c">team_id &#160;&#160;&#160;</text>
<text text-anchor="start" x="318.54" y="-1715.01" font-family="Helvetica,sans-Serif" font-style="italic" font-size="32.00" fill="#29235c">varchar</text>
<text text-anchor="start" x="425.22" y="-1715.01" font-family="Helvetica,sans-Serif" font-size="32.00" fill="#29235c"> </text>
<text text-anchor="start" x="434.11" y="-1715.01" font-family="Helvetica,sans-Serif" font-weight="bold" font-size="32.00" fill="#29235c">(!)</text>
<polygon fill="#e7e2dd" stroke="transparent" points="84.31,-1633.81 84.31,-1693.81 475.31,-1693.81 475.31,-1633.81 84.31,-1633.81"/>
<polygon fill="none" stroke="#29235c" points="84.31,-1633.81 84.31,-1693.81 475.31,-1693.81 475.31,-1633.81 84.31,-1633.81"/>
<text text-anchor="start" x="95.31" y="-1654.01" font-family="Helvetica,sans-Serif" font-size="32.00" fill="#29235c">user_id &#160;&#160;&#160;</text>
<text text-anchor="start" x="366.51" y="-1655.01" font-family="Helvetica,sans-Serif" font-style="italic" font-size="32.00" fill="#29235c">integer</text>
<polygon fill="#e7e2dd" stroke="transparent" points="84.31,-1573.81 84.31,-1633.81 475.31,-1633.81 475.31,-1573.81 84.31,-1573.81"/>
<polygon fill="none" stroke="#29235c" points="84.31,-1573.81 84.31,-1633.81 475.31,-1633.81 475.31,-1573.81 84.31,-1573.81"/>
<text text-anchor="start" x="95.31" y="-1594.01" font-family="Helvetica,sans-Serif" font-size="32.00" fill="#29235c">action &#160;&#160;&#160;</text>
<text text-anchor="start" x="373.64" y="-1595.01" font-family="Helvetica,sans-Serif" font-style="italic" font-size="32.00" fill="#29235c">text</text>
<text text-anchor="start" x="425.22" y="-1595.01" font-family="Helvetica,sans-Serif" font-size="32.00" fill="#29235c"> </text>
<text text-anchor="start" x="434.11" y="-1595.01" font-family="Helvetica,sans-Serif" font-weight="bold" font-size="32.00" fill="#29235c">(!)</text>
<polygon fill="#e7e2dd" stroke="transparent" points="84.31,-1513.81 84.31,-1573.81 475.31,-1573.81 475.31,-1513.81 84.31,-1513.81"/>
<polygon fill="none" stroke="#29235c" points="84.31,-1513.81 84.31,-1573.81 475.31,-1573.81 475.31,-1513.81 84.31,-1513.81"/>
<text text-anchor="start" x="95.24" y="-1534.01" font-family="Helvetica,sans-Serif" font-size="32.00" fill="#29235c">timestamp &#160;&#160;&#160;</text>
<text text-anchor="start" x="277.98" y="-1535.01" font-family="Helvetica,sans-Serif" font-style="italic" font-size="32.00" fill="#29235c">timestamp</text>
<text text-anchor="start" x="425.54" y="-1535.01" font-family="Helvetica,sans-Serif" font-size="32.00" fill="#29235c"> </text>
<text text-anchor="start" x="434.43" y="-1535.01" font-family="Helvetica,sans-Serif" font-weight="bold" font-size="32.00" fill="#29235c">(!)</text>
<polygon fill="#e7e2dd" stroke="transparent" points="84.31,-1453.81 84.31,-1513.81 475.31,-1513.81 475.31,-1453.81 84.31,-1453.81"/>
<polygon fill="none" stroke="#29235c" points="84.31,-1453.81 84.31,-1513.81 475.31,-1513.81 475.31,-1453.81 84.31,-1453.81"/>
<text text-anchor="start" x="95.31" y="-1474.01" font-family="Helvetica,sans-Serif" font-size="32.00" fill="#29235c">ip_address &#160;&#160;&#160;</text>
<text text-anchor="start" x="300.75" y="-1475.01" font-family="Helvetica,sans-Serif" font-style="italic" font-size="32.00" fill="#29235c">varchar(45)</text>
<polygon fill="none" stroke="#29235c" stroke-width="2" points="82.81,-1452.81 82.81,-1874.81 475.81,-1874.81 475.81,-1452.81 82.81,-1452.81"/>
</g>
<!-- teams -->
<g id="teams" class="node">
<title>teams</title>
<ellipse fill="none" stroke="black" stroke-width="0" cx="946.75" cy="-1142.81" rx="352.28" ry="596.6"/>
<polygon fill="#1d71b8" stroke="transparent" points="699.75,-1502.81 699.75,-1562.81 1193.75,-1562.81 1193.75,-1502.81 699.75,-1502.81"/>
<polygon fill="none" stroke="#29235c" points="699.75,-1502.81 699.75,-1562.81 1193.75,-1562.81 1193.75,-1502.81 699.75,-1502.81"/>
<text text-anchor="start" x="840.94" y="-1524.01" font-family="Helvetica,sans-Serif" font-weight="bold" font-size="32.00" fill="#ffffff"> &#160;&#160;&#160;&#160;&#160;&#160;teams &#160;&#160;&#160;&#160;&#160;&#160;</text>
<polygon fill="#e7e2dd" stroke="transparent" points="699.75,-1442.81 699.75,-1502.81 1193.75,-1502.81 1193.75,-1442.81 699.75,-1442.81"/>
<polygon fill="none" stroke="#29235c" points="699.75,-1442.81 699.75,-1502.81 1193.75,-1502.81 1193.75,-1442.81 699.75,-1442.81"/>
<text text-anchor="start" x="710.75" y="-1464.01" font-family="Helvetica,sans-Serif" font-weight="bold" font-size="32.00" fill="#29235c">id</text>
<text text-anchor="start" x="735.64" y="-1464.01" font-family="Helvetica,sans-Serif" font-size="32.00" fill="#29235c"> &#160;&#160;&#160;</text>
<text text-anchor="start" x="1067.23" y="-1464.01" font-family="Helvetica,sans-Serif" font-style="italic" font-size="32.00" fill="#29235c">serial</text>
<text text-anchor="start" x="1143.66" y="-1464.01" font-family="Helvetica,sans-Serif" font-size="32.00" fill="#29235c"> </text>
<text text-anchor="start" x="1152.56" y="-1464.01" font-family="Helvetica,sans-Serif" font-weight="bold" font-size="32.00" fill="#29235c">(!)</text>
<polygon fill="#e7e2dd" stroke="transparent" points="699.75,-1382.81 699.75,-1442.81 1193.75,-1442.81 1193.75,-1382.81 699.75,-1382.81"/>
<polygon fill="none" stroke="#29235c" points="699.75,-1382.81 699.75,-1442.81 1193.75,-1442.81 1193.75,-1382.81 699.75,-1382.81"/>
<text text-anchor="start" x="710.75" y="-1403.01" font-family="Helvetica,sans-Serif" font-size="32.00" fill="#29235c">name &#160;&#160;&#160;</text>
<text text-anchor="start" x="962.32" y="-1404.01" font-family="Helvetica,sans-Serif" font-style="italic" font-size="32.00" fill="#29235c">varchar(100)</text>
<text text-anchor="start" x="1143.66" y="-1404.01" font-family="Helvetica,sans-Serif" font-size="32.00" fill="#29235c"> </text>
<text text-anchor="start" x="1152.56" y="-1404.01" font-family="Helvetica,sans-Serif" font-weight="bold" font-size="32.00" fill="#29235c">(!)</text>
<polygon fill="#e7e2dd" stroke="transparent" points="699.75,-1322.81 699.75,-1382.81 1193.75,-1382.81 1193.75,-1322.81 699.75,-1322.81"/>
<polygon fill="none" stroke="#29235c" points="699.75,-1322.81 699.75,-1382.81 1193.75,-1382.81 1193.75,-1322.81 699.75,-1322.81"/>
<text text-anchor="start" x="710.75" y="-1343.01" font-family="Helvetica,sans-Serif" font-size="32.00" fill="#29235c">created_at &#160;&#160;&#160;</text>
<text text-anchor="start" x="996.1" y="-1344.01" font-family="Helvetica,sans-Serif" font-style="italic" font-size="32.00" fill="#29235c">timestamp</text>
<text text-anchor="start" x="1143.66" y="-1344.01" font-family="Helvetica,sans-Serif" font-size="32.00" fill="#29235c"> </text>
<text text-anchor="start" x="1152.56" y="-1344.01" font-family="Helvetica,sans-Serif" font-weight="bold" font-size="32.00" fill="#29235c">(!)</text>
<polygon fill="#e7e2dd" stroke="transparent" points="699.75,-1262.81 699.75,-1322.81 1193.75,-1322.81 1193.75,-1262.81 699.75,-1262.81"/>
<polygon fill="none" stroke="#29235c" points="699.75,-1262.81 699.75,-1322.81 1193.75,-1322.81 1193.75,-1262.81 699.75,-1262.81"/>
<text text-anchor="start" x="710.75" y="-1283.01" font-family="Helvetica,sans-Serif" font-size="32.00" fill="#29235c">updated_at &#160;&#160;&#160;</text>
<text text-anchor="start" x="996.1" y="-1284.01" font-family="Helvetica,sans-Serif" font-style="italic" font-size="32.00" fill="#29235c">timestamp</text>
<text text-anchor="start" x="1143.66" y="-1284.01" font-family="Helvetica,sans-Serif" font-size="32.00" fill="#29235c"> </text>
<text text-anchor="start" x="1152.56" y="-1284.01" font-family="Helvetica,sans-Serif" font-weight="bold" font-size="32.00" fill="#29235c">(!)</text>
<polygon fill="#e7e2dd" stroke="transparent" points="699.75,-1202.81 699.75,-1262.81 1193.75,-1262.81 1193.75,-1202.81 699.75,-1202.81"/>
<polygon fill="none" stroke="#29235c" points="699.75,-1202.81 699.75,-1262.81 1193.75,-1262.81 1193.75,-1202.81 699.75,-1202.81"/>
<text text-anchor="start" x="710.75" y="-1223.01" font-family="Helvetica,sans-Serif" font-size="32.00" fill="#29235c">stripe_customer_id &#160;&#160;&#160;</text>
<text text-anchor="start" x="1131.18" y="-1224.01" font-family="Helvetica,sans-Serif" font-style="italic" font-size="32.00" fill="#29235c">text</text>
<polygon fill="#e7e2dd" stroke="transparent" points="699.75,-1142.81 699.75,-1202.81 1193.75,-1202.81 1193.75,-1142.81 699.75,-1142.81"/>
<polygon fill="none" stroke="#29235c" points="699.75,-1142.81 699.75,-1202.81 1193.75,-1202.81 1193.75,-1142.81 699.75,-1142.81"/>
<text text-anchor="start" x="710.75" y="-1163.01" font-family="Helvetica,sans-Serif" font-size="32.00" fill="#29235c">stripe_subscription_id &#160;&#160;&#160;</text>
<text text-anchor="start" x="1131.18" y="-1164.01" font-family="Helvetica,sans-Serif" font-style="italic" font-size="32.00" fill="#29235c">text</text>
<polygon fill="#e7e2dd" stroke="transparent" points="699.75,-1082.81 699.75,-1142.81 1193.75,-1142.81 1193.75,-1082.81 699.75,-1082.81"/>
<polygon fill="none" stroke="#29235c" points="699.75,-1082.81 699.75,-1142.81 1193.75,-1142.81 1193.75,-1082.81 699.75,-1082.81"/>
<text text-anchor="start" x="710.75" y="-1103.01" font-family="Helvetica,sans-Serif" font-size="32.00" fill="#29235c">stripe_product_id &#160;&#160;&#160;</text>
<text text-anchor="start" x="1131.18" y="-1104.01" font-family="Helvetica,sans-Serif" font-style="italic" font-size="32.00" fill="#29235c">text</text>
<polygon fill="#e7e2dd" stroke="transparent" points="699.75,-1022.81 699.75,-1082.81 1193.75,-1082.81 1193.75,-1022.81 699.75,-1022.81"/>
<polygon fill="none" stroke="#29235c" points="699.75,-1022.81 699.75,-1082.81 1193.75,-1082.81 1193.75,-1022.81 699.75,-1022.81"/>
<text text-anchor="start" x="710.75" y="-1043.01" font-family="Helvetica,sans-Serif" font-size="32.00" fill="#29235c">admin_id &#160;&#160;&#160;</text>
<text text-anchor="start" x="1045.86" y="-1044.01" font-family="Helvetica,sans-Serif" font-style="italic" font-size="32.00" fill="#29235c">integer</text>
<text text-anchor="start" x="1143.66" y="-1044.01" font-family="Helvetica,sans-Serif" font-size="32.00" fill="#29235c"> </text>
<text text-anchor="start" x="1152.56" y="-1044.01" font-family="Helvetica,sans-Serif" font-weight="bold" font-size="32.00" fill="#29235c">(!)</text>
<polygon fill="#e7e2dd" stroke="transparent" points="699.75,-962.81 699.75,-1022.81 1193.75,-1022.81 1193.75,-962.81 699.75,-962.81"/>
<polygon fill="none" stroke="#29235c" points="699.75,-962.81 699.75,-1022.81 1193.75,-1022.81 1193.75,-962.81 699.75,-962.81"/>
<text text-anchor="start" x="710.75" y="-983.01" font-family="Helvetica,sans-Serif" font-size="32.00" fill="#29235c">team_code &#160;&#160;&#160;</text>
<text text-anchor="start" x="997.9" y="-984.01" font-family="Helvetica,sans-Serif" font-style="italic" font-size="32.00" fill="#29235c">varchar(5)</text>
<text text-anchor="start" x="1143.66" y="-984.01" font-family="Helvetica,sans-Serif" font-size="32.00" fill="#29235c"> </text>
<text text-anchor="start" x="1152.56" y="-984.01" font-family="Helvetica,sans-Serif" font-weight="bold" font-size="32.00" fill="#29235c">(!)</text>
<polygon fill="#e7e2dd" stroke="transparent" points="699.75,-902.81 699.75,-962.81 1193.75,-962.81 1193.75,-902.81 699.75,-902.81"/>
<polygon fill="none" stroke="#29235c" points="699.75,-902.81 699.75,-962.81 1193.75,-962.81 1193.75,-902.81 699.75,-902.81"/>
<text text-anchor="start" x="710.75" y="-923.01" font-family="Helvetica,sans-Serif" font-size="32.00" fill="#29235c">start_date &#160;&#160;&#160;</text>
<text text-anchor="start" x="1035.2" y="-924.01" font-family="Helvetica,sans-Serif" font-style="italic" font-size="32.00" fill="#29235c">timestamp</text>
<polygon fill="#e7e2dd" stroke="transparent" points="699.75,-842.81 699.75,-902.81 1193.75,-902.81 1193.75,-842.81 699.75,-842.81"/>
<polygon fill="none" stroke="#29235c" points="699.75,-842.81 699.75,-902.81 1193.75,-902.81 1193.75,-842.81 699.75,-842.81"/>
<text text-anchor="start" x="710.75" y="-863.01" font-family="Helvetica,sans-Serif" font-size="32.00" fill="#29235c">end_date &#160;&#160;&#160;</text>
<text text-anchor="start" x="1035.2" y="-864.01" font-family="Helvetica,sans-Serif" font-style="italic" font-size="32.00" fill="#29235c">timestamp</text>
<polygon fill="#e7e2dd" stroke="transparent" points="699.75,-782.81 699.75,-842.81 1193.75,-842.81 1193.75,-782.81 699.75,-782.81"/>
<polygon fill="none" stroke="#29235c" points="699.75,-782.81 699.75,-842.81 1193.75,-842.81 1193.75,-782.81 699.75,-782.81"/>
<text text-anchor="start" x="710.75" y="-803.01" font-family="Helvetica,sans-Serif" font-size="32.00" fill="#29235c">plan_name &#160;&#160;&#160;</text>
<text text-anchor="start" x="1019.2" y="-804.01" font-family="Helvetica,sans-Serif" font-style="italic" font-size="32.00" fill="#29235c">varchar(50)</text>
<polygon fill="#e7e2dd" stroke="transparent" points="699.75,-722.81 699.75,-782.81 1193.75,-782.81 1193.75,-722.81 699.75,-722.81"/>
<polygon fill="none" stroke="#29235c" points="699.75,-722.81 699.75,-782.81 1193.75,-782.81 1193.75,-722.81 699.75,-722.81"/>
<text text-anchor="start" x="710.55" y="-743.01" font-family="Helvetica,sans-Serif" font-size="32.00" fill="#29235c">subscription_status &#160;&#160;&#160;</text>
<text text-anchor="start" x="1019.48" y="-744.01" font-family="Helvetica,sans-Serif" font-style="italic" font-size="32.00" fill="#29235c">varchar(20)</text>
<polygon fill="none" stroke="#29235c" stroke-width="2" points="698.75,-721.81 698.75,-1563.81 1194.75,-1563.81 1194.75,-721.81 698.75,-721.81"/>
</g>
<!-- activity_logs&#45;&gt;teams -->
<!-- activity_logs&#45;&gt;teams -->
<g id="edge2" class="edge">
<title>activity_logs:e&#45;&gt;teams:w</title>
<path fill="none" stroke="#29235c" stroke-width="3" d="M476.31,-1723.81C812.42,-1723.81 368.44,-1007.73 688.56,-993.04"/>
<polygon fill="#29235c" stroke="#29235c" stroke-width="3" points="688.83,-996.54 698.75,-992.81 688.68,-989.54 688.83,-996.54"/>
<text text-anchor="middle" x="689.86" y="-1002.41" font-family="Helvetica,sans-Serif" font-size="32.00" fill="#29235c">1</text>
<text text-anchor="middle" x="470.08" y="-1733.41" font-family="Helvetica,sans-Serif" font-size="32.00" fill="#29235c">*</text>
</g>
<!-- users -->
<g id="users" class="node">
<title>users</title>
<ellipse fill="none" stroke="black" stroke-width="0" cx="1622.69" cy="-1292.81" rx="287.59" ry="384.83"/>
<polygon fill="#1d71b8" stroke="transparent" points="1421.69,-1502.81 1421.69,-1562.81 1824.69,-1562.81 1824.69,-1502.81 1421.69,-1502.81"/>
<polygon fill="none" stroke="#29235c" points="1421.69,-1502.81 1421.69,-1562.81 1824.69,-1562.81 1824.69,-1502.81 1421.69,-1502.81"/>
<text text-anchor="start" x="1521.82" y="-1524.01" font-family="Helvetica,sans-Serif" font-weight="bold" font-size="32.00" fill="#ffffff"> &#160;&#160;&#160;&#160;&#160;&#160;users &#160;&#160;&#160;&#160;&#160;&#160;</text>
<polygon fill="#e7e2dd" stroke="transparent" points="1421.69,-1442.81 1421.69,-1502.81 1824.69,-1502.81 1824.69,-1442.81 1421.69,-1442.81"/>
<polygon fill="none" stroke="#29235c" points="1421.69,-1442.81 1421.69,-1502.81 1824.69,-1502.81 1824.69,-1442.81 1421.69,-1442.81"/>
<text text-anchor="start" x="1432.69" y="-1464.01" font-family="Helvetica,sans-Serif" font-weight="bold" font-size="32.00" fill="#29235c">id</text>
<text text-anchor="start" x="1457.57" y="-1464.01" font-family="Helvetica,sans-Serif" font-size="32.00" fill="#29235c"> &#160;&#160;&#160;</text>
<text text-anchor="start" x="1698.16" y="-1464.01" font-family="Helvetica,sans-Serif" font-style="italic" font-size="32.00" fill="#29235c">serial</text>
<text text-anchor="start" x="1774.59" y="-1464.01" font-family="Helvetica,sans-Serif" font-size="32.00" fill="#29235c"> </text>
<text text-anchor="start" x="1783.49" y="-1464.01" font-family="Helvetica,sans-Serif" font-weight="bold" font-size="32.00" fill="#29235c">(!)</text>
<polygon fill="#e7e2dd" stroke="transparent" points="1421.69,-1382.81 1421.69,-1442.81 1824.69,-1442.81 1824.69,-1382.81 1421.69,-1382.81"/>
<polygon fill="none" stroke="#29235c" points="1421.69,-1382.81 1421.69,-1442.81 1824.69,-1442.81 1824.69,-1382.81 1421.69,-1382.81"/>
<text text-anchor="start" x="1432.69" y="-1403.01" font-family="Helvetica,sans-Serif" font-size="32.00" fill="#29235c">name &#160;&#160;&#160;</text>
<text text-anchor="start" x="1632.34" y="-1404.01" font-family="Helvetica,sans-Serif" font-style="italic" font-size="32.00" fill="#29235c">varchar(100)</text>
<polygon fill="#e7e2dd" stroke="transparent" points="1421.69,-1322.81 1421.69,-1382.81 1824.69,-1382.81 1824.69,-1322.81 1421.69,-1322.81"/>
<polygon fill="none" stroke="#29235c" points="1421.69,-1322.81 1421.69,-1382.81 1824.69,-1382.81 1824.69,-1322.81 1421.69,-1322.81"/>
<text text-anchor="start" x="1432.69" y="-1343.01" font-family="Helvetica,sans-Serif" font-size="32.00" fill="#29235c">email &#160;&#160;&#160;</text>
<text text-anchor="start" x="1593.25" y="-1344.01" font-family="Helvetica,sans-Serif" font-style="italic" font-size="32.00" fill="#29235c">varchar(255)</text>
<text text-anchor="start" x="1774.59" y="-1344.01" font-family="Helvetica,sans-Serif" font-size="32.00" fill="#29235c"> </text>
<text text-anchor="start" x="1783.49" y="-1344.01" font-family="Helvetica,sans-Serif" font-weight="bold" font-size="32.00" fill="#29235c">(!)</text>
<polygon fill="#e7e2dd" stroke="transparent" points="1421.69,-1262.81 1421.69,-1322.81 1824.69,-1322.81 1824.69,-1262.81 1421.69,-1262.81"/>
<polygon fill="none" stroke="#29235c" points="1421.69,-1262.81 1421.69,-1322.81 1824.69,-1322.81 1824.69,-1262.81 1421.69,-1262.81"/>
<text text-anchor="start" x="1432.69" y="-1283.01" font-family="Helvetica,sans-Serif" font-size="32.00" fill="#29235c">password_hash &#160;&#160;&#160;</text>
<text text-anchor="start" x="1723.02" y="-1284.01" font-family="Helvetica,sans-Serif" font-style="italic" font-size="32.00" fill="#29235c">text</text>
<text text-anchor="start" x="1774.59" y="-1284.01" font-family="Helvetica,sans-Serif" font-size="32.00" fill="#29235c"> </text>
<text text-anchor="start" x="1783.49" y="-1284.01" font-family="Helvetica,sans-Serif" font-weight="bold" font-size="32.00" fill="#29235c">(!)</text>
<polygon fill="#e7e2dd" stroke="transparent" points="1421.69,-1202.81 1421.69,-1262.81 1824.69,-1262.81 1824.69,-1202.81 1421.69,-1202.81"/>
<polygon fill="none" stroke="#29235c" points="1421.69,-1202.81 1421.69,-1262.81 1824.69,-1262.81 1824.69,-1202.81 1421.69,-1202.81"/>
<text text-anchor="start" x="1432.69" y="-1223.01" font-family="Helvetica,sans-Serif" font-size="32.00" fill="#29235c">role &#160;&#160;&#160;</text>
<text text-anchor="start" x="1611.04" y="-1224.01" font-family="Helvetica,sans-Serif" font-style="italic" font-size="32.00" fill="#29235c">varchar(20)</text>
<text text-anchor="start" x="1774.59" y="-1224.01" font-family="Helvetica,sans-Serif" font-size="32.00" fill="#29235c"> </text>
<text text-anchor="start" x="1783.49" y="-1224.01" font-family="Helvetica,sans-Serif" font-weight="bold" font-size="32.00" fill="#29235c">(!)</text>
<polygon fill="#e7e2dd" stroke="transparent" points="1421.69,-1142.81 1421.69,-1202.81 1824.69,-1202.81 1824.69,-1142.81 1421.69,-1142.81"/>
<polygon fill="none" stroke="#29235c" points="1421.69,-1142.81 1421.69,-1202.81 1824.69,-1202.81 1824.69,-1142.81 1421.69,-1142.81"/>
<text text-anchor="start" x="1432.69" y="-1163.01" font-family="Helvetica,sans-Serif" font-size="32.00" fill="#29235c">created_at &#160;&#160;&#160;</text>
<text text-anchor="start" x="1627.04" y="-1164.01" font-family="Helvetica,sans-Serif" font-style="italic" font-size="32.00" fill="#29235c">timestamp</text>
<text text-anchor="start" x="1774.59" y="-1164.01" font-family="Helvetica,sans-Serif" font-size="32.00" fill="#29235c"> </text>
<text text-anchor="start" x="1783.49" y="-1164.01" font-family="Helvetica,sans-Serif" font-weight="bold" font-size="32.00" fill="#29235c">(!)</text>
<polygon fill="#e7e2dd" stroke="transparent" points="1421.69,-1082.81 1421.69,-1142.81 1824.69,-1142.81 1824.69,-1082.81 1421.69,-1082.81"/>
<polygon fill="none" stroke="#29235c" points="1421.69,-1082.81 1421.69,-1142.81 1824.69,-1142.81 1824.69,-1082.81 1421.69,-1082.81"/>
<text text-anchor="start" x="1432.35" y="-1103.01" font-family="Helvetica,sans-Serif" font-size="32.00" fill="#29235c">updated_at &#160;&#160;&#160;</text>
<text text-anchor="start" x="1627.36" y="-1104.01" font-family="Helvetica,sans-Serif" font-style="italic" font-size="32.00" fill="#29235c">timestamp</text>
<text text-anchor="start" x="1774.92" y="-1104.01" font-family="Helvetica,sans-Serif" font-size="32.00" fill="#29235c"> </text>
<text text-anchor="start" x="1783.81" y="-1104.01" font-family="Helvetica,sans-Serif" font-weight="bold" font-size="32.00" fill="#29235c">(!)</text>
<polygon fill="#e7e2dd" stroke="transparent" points="1421.69,-1022.81 1421.69,-1082.81 1824.69,-1082.81 1824.69,-1022.81 1421.69,-1022.81"/>
<polygon fill="none" stroke="#29235c" points="1421.69,-1022.81 1421.69,-1082.81 1824.69,-1082.81 1824.69,-1022.81 1421.69,-1022.81"/>
<text text-anchor="start" x="1432.69" y="-1043.01" font-family="Helvetica,sans-Serif" font-size="32.00" fill="#29235c">deleted_at &#160;&#160;&#160;</text>
<text text-anchor="start" x="1666.13" y="-1044.01" font-family="Helvetica,sans-Serif" font-style="italic" font-size="32.00" fill="#29235c">timestamp</text>
<polygon fill="none" stroke="#29235c" stroke-width="2" points="1420.19,-1021.81 1420.19,-1563.81 1825.19,-1563.81 1825.19,-1021.81 1420.19,-1021.81"/>
</g>
<!-- activity_logs&#45;&gt;users -->
<!-- activity_logs&#45;&gt;users -->
<g id="edge4" class="edge">
<title>activity_logs:e&#45;&gt;users:w</title>
<path fill="none" stroke="#29235c" stroke-width="3" d="M476.31,-1663.81C541.05,-1663.81 532.99,-1728.97 594.61,-1748.81 669.1,-1772.8 1233.33,-1791.54 1298.89,-1748.81 1408.26,-1677.53 1293.01,-1483.42 1410.61,-1473.23"/>
<polygon fill="#29235c" stroke="#29235c" stroke-width="3" points="1410.84,-1476.72 1420.69,-1472.81 1410.55,-1469.73 1410.84,-1476.72"/>
<text text-anchor="middle" x="1429.58" y="-1482.41" font-family="Helvetica,sans-Serif" font-size="32.00" fill="#29235c">1</text>
<text text-anchor="middle" x="470.08" y="-1673.41" font-family="Helvetica,sans-Serif" font-size="32.00" fill="#29235c">*</text>
</g>
<!-- invitations -->
<g id="invitations" class="node">
<title>invitations</title>
<ellipse fill="none" stroke="black" stroke-width="0" cx="279.31" cy="-1003.81" rx="271.56" ry="342.48"/>
<polygon fill="#1d71b8" stroke="transparent" points="89.31,-1183.81 89.31,-1243.81 469.31,-1243.81 469.31,-1183.81 89.31,-1183.81"/>
<polygon fill="none" stroke="#29235c" points="89.31,-1183.81 89.31,-1243.81 469.31,-1243.81 469.31,-1183.81 89.31,-1183.81"/>
<text text-anchor="start" x="145.94" y="-1205.01" font-family="Helvetica,sans-Serif" font-weight="bold" font-size="32.00" fill="#ffffff"> &#160;&#160;&#160;&#160;&#160;&#160;invitations &#160;&#160;&#160;&#160;&#160;&#160;</text>
<polygon fill="#e7e2dd" stroke="transparent" points="89.31,-1123.81 89.31,-1183.81 469.31,-1183.81 469.31,-1123.81 89.31,-1123.81"/>
<polygon fill="none" stroke="#29235c" points="89.31,-1123.81 89.31,-1183.81 469.31,-1183.81 469.31,-1123.81 89.31,-1123.81"/>
<text text-anchor="start" x="100.31" y="-1145.01" font-family="Helvetica,sans-Serif" font-weight="bold" font-size="32.00" fill="#29235c">id</text>
<text text-anchor="start" x="125.2" y="-1145.01" font-family="Helvetica,sans-Serif" font-size="32.00" fill="#29235c"> &#160;&#160;&#160;</text>
<text text-anchor="start" x="342.78" y="-1145.01" font-family="Helvetica,sans-Serif" font-style="italic" font-size="32.00" fill="#29235c">serial</text>
<text text-anchor="start" x="419.22" y="-1145.01" font-family="Helvetica,sans-Serif" font-size="32.00" fill="#29235c"> </text>
<text text-anchor="start" x="428.11" y="-1145.01" font-family="Helvetica,sans-Serif" font-weight="bold" font-size="32.00" fill="#29235c">(!)</text>
<polygon fill="#e7e2dd" stroke="transparent" points="89.31,-1063.81 89.31,-1123.81 469.31,-1123.81 469.31,-1063.81 89.31,-1063.81"/>
<polygon fill="none" stroke="#29235c" points="89.31,-1063.81 89.31,-1123.81 469.31,-1123.81 469.31,-1063.81 89.31,-1063.81"/>
<text text-anchor="start" x="100.31" y="-1084.01" font-family="Helvetica,sans-Serif" font-size="32.00" fill="#29235c">team_id &#160;&#160;&#160;</text>
<text text-anchor="start" x="312.54" y="-1085.01" font-family="Helvetica,sans-Serif" font-style="italic" font-size="32.00" fill="#29235c">varchar</text>
<text text-anchor="start" x="419.22" y="-1085.01" font-family="Helvetica,sans-Serif" font-size="32.00" fill="#29235c"> </text>
<text text-anchor="start" x="428.11" y="-1085.01" font-family="Helvetica,sans-Serif" font-weight="bold" font-size="32.00" fill="#29235c">(!)</text>
<polygon fill="#e7e2dd" stroke="transparent" points="89.31,-1003.81 89.31,-1063.81 469.31,-1063.81 469.31,-1003.81 89.31,-1003.81"/>
<polygon fill="none" stroke="#29235c" points="89.31,-1003.81 89.31,-1063.81 469.31,-1063.81 469.31,-1003.81 89.31,-1003.81"/>
<text text-anchor="start" x="100.31" y="-1024.01" font-family="Helvetica,sans-Serif" font-size="32.00" fill="#29235c">email &#160;&#160;&#160;</text>
<text text-anchor="start" x="237.87" y="-1025.01" font-family="Helvetica,sans-Serif" font-style="italic" font-size="32.00" fill="#29235c">varchar(255)</text>
<text text-anchor="start" x="419.22" y="-1025.01" font-family="Helvetica,sans-Serif" font-size="32.00" fill="#29235c"> </text>
<text text-anchor="start" x="428.11" y="-1025.01" font-family="Helvetica,sans-Serif" font-weight="bold" font-size="32.00" fill="#29235c">(!)</text>
<polygon fill="#e7e2dd" stroke="transparent" points="89.31,-943.81 89.31,-1003.81 469.31,-1003.81 469.31,-943.81 89.31,-943.81"/>
<polygon fill="none" stroke="#29235c" points="89.31,-943.81 89.31,-1003.81 469.31,-1003.81 469.31,-943.81 89.31,-943.81"/>
<text text-anchor="start" x="100.31" y="-964.01" font-family="Helvetica,sans-Serif" font-size="32.00" fill="#29235c">role &#160;&#160;&#160;</text>
<text text-anchor="start" x="255.66" y="-965.01" font-family="Helvetica,sans-Serif" font-style="italic" font-size="32.00" fill="#29235c">varchar(50)</text>
<text text-anchor="start" x="419.22" y="-965.01" font-family="Helvetica,sans-Serif" font-size="32.00" fill="#29235c"> </text>
<text text-anchor="start" x="428.11" y="-965.01" font-family="Helvetica,sans-Serif" font-weight="bold" font-size="32.00" fill="#29235c">(!)</text>
<polygon fill="#e7e2dd" stroke="transparent" points="89.31,-883.81 89.31,-943.81 469.31,-943.81 469.31,-883.81 89.31,-883.81"/>
<polygon fill="none" stroke="#29235c" points="89.31,-883.81 89.31,-943.81 469.31,-943.81 469.31,-883.81 89.31,-883.81"/>
<text text-anchor="start" x="100.31" y="-904.01" font-family="Helvetica,sans-Serif" font-size="32.00" fill="#29235c">invited_by &#160;&#160;&#160;</text>
<text text-anchor="start" x="321.41" y="-905.01" font-family="Helvetica,sans-Serif" font-style="italic" font-size="32.00" fill="#29235c">integer</text>
<text text-anchor="start" x="419.22" y="-905.01" font-family="Helvetica,sans-Serif" font-size="32.00" fill="#29235c"> </text>
<text text-anchor="start" x="428.11" y="-905.01" font-family="Helvetica,sans-Serif" font-weight="bold" font-size="32.00" fill="#29235c">(!)</text>
<polygon fill="#e7e2dd" stroke="transparent" points="89.31,-823.81 89.31,-883.81 469.31,-883.81 469.31,-823.81 89.31,-823.81"/>
<polygon fill="none" stroke="#29235c" points="89.31,-823.81 89.31,-883.81 469.31,-883.81 469.31,-823.81 89.31,-823.81"/>
<text text-anchor="start" x="100.06" y="-844.01" font-family="Helvetica,sans-Serif" font-size="32.00" fill="#29235c">invited_at &#160;&#160;&#160;</text>
<text text-anchor="start" x="271.98" y="-845.01" font-family="Helvetica,sans-Serif" font-style="italic" font-size="32.00" fill="#29235c">timestamp</text>
<text text-anchor="start" x="419.54" y="-845.01" font-family="Helvetica,sans-Serif" font-size="32.00" fill="#29235c"> </text>
<text text-anchor="start" x="428.43" y="-845.01" font-family="Helvetica,sans-Serif" font-weight="bold" font-size="32.00" fill="#29235c">(!)</text>
<polygon fill="#e7e2dd" stroke="transparent" points="89.31,-763.81 89.31,-823.81 469.31,-823.81 469.31,-763.81 89.31,-763.81"/>
<polygon fill="none" stroke="#29235c" points="89.31,-763.81 89.31,-823.81 469.31,-823.81 469.31,-763.81 89.31,-763.81"/>
<text text-anchor="start" x="100.31" y="-784.01" font-family="Helvetica,sans-Serif" font-size="32.00" fill="#29235c">status &#160;&#160;&#160;</text>
<text text-anchor="start" x="255.66" y="-785.01" font-family="Helvetica,sans-Serif" font-style="italic" font-size="32.00" fill="#29235c">varchar(20)</text>
<text text-anchor="start" x="419.22" y="-785.01" font-family="Helvetica,sans-Serif" font-size="32.00" fill="#29235c"> </text>
<text text-anchor="start" x="428.11" y="-785.01" font-family="Helvetica,sans-Serif" font-weight="bold" font-size="32.00" fill="#29235c">(!)</text>
<polygon fill="none" stroke="#29235c" stroke-width="2" points="88.31,-762.81 88.31,-1244.81 470.31,-1244.81 470.31,-762.81 88.31,-762.81"/>
</g>
<!-- invitations&#45;&gt;teams -->
<!-- invitations&#45;&gt;teams -->
<g id="edge6" class="edge">
<title>invitations:e&#45;&gt;teams:w</title>
<path fill="none" stroke="#29235c" stroke-width="3" d="M470.31,-1093.81C577.85,-1093.81 587.24,-999.03 688.65,-993.1"/>
<polygon fill="#29235c" stroke="#29235c" stroke-width="3" points="688.86,-996.6 698.75,-992.81 688.66,-989.6 688.86,-996.6"/>
<text text-anchor="middle" x="707.65" y="-1002.41" font-family="Helvetica,sans-Serif" font-size="32.00" fill="#29235c">1</text>
<text text-anchor="middle" x="464.08" y="-1103.41" font-family="Helvetica,sans-Serif" font-size="32.00" fill="#29235c">*</text>
</g>
<!-- invitations&#45;&gt;users -->
<!-- invitations&#45;&gt;users -->
<g id="edge8" class="edge">
<title>invitations:e&#45;&gt;users:w</title>
<path fill="none" stroke="#29235c" stroke-width="3" d="M470.31,-913.81C558.52,-913.81 523.13,-588.51 594.61,-536.81 658.02,-490.95 1240.1,-485.17 1298.89,-536.81 1453.87,-672.93 1218.97,-1446.51 1410.61,-1472.16"/>
<polygon fill="#29235c" stroke="#29235c" stroke-width="3" points="1410.48,-1475.66 1420.69,-1472.81 1410.93,-1468.67 1410.48,-1475.66"/>
<text text-anchor="middle" x="1429.58" y="-1444.01" font-family="Helvetica,sans-Serif" font-size="32.00" fill="#29235c">1</text>
<text text-anchor="middle" x="464.08" y="-923.41" font-family="Helvetica,sans-Serif" font-size="32.00" fill="#29235c">*</text>
</g>
<!-- team_members -->
<g id="team_members" class="node">
<title>team_members</title>
<ellipse fill="none" stroke="black" stroke-width="0" cx="279.31" cy="-299.81" rx="266.66" ry="299.63"/>
<polygon fill="#1d71b8" stroke="transparent" points="93.31,-449.81 93.31,-509.81 466.31,-509.81 466.31,-449.81 93.31,-449.81"/>
<polygon fill="none" stroke="#29235c" points="93.31,-449.81 93.31,-509.81 466.31,-509.81 466.31,-449.81 93.31,-449.81"/>
<text text-anchor="start" x="106.44" y="-471.01" font-family="Helvetica,sans-Serif" font-weight="bold" font-size="32.00" fill="#ffffff"> &#160;&#160;&#160;&#160;&#160;&#160;team_members &#160;&#160;&#160;&#160;&#160;&#160;</text>
<polygon fill="#e7e2dd" stroke="transparent" points="93.31,-389.81 93.31,-449.81 466.31,-449.81 466.31,-389.81 93.31,-389.81"/>
<polygon fill="none" stroke="#29235c" points="93.31,-389.81 93.31,-449.81 466.31,-449.81 466.31,-389.81 93.31,-389.81"/>
<text text-anchor="start" x="104.31" y="-411.01" font-family="Helvetica,sans-Serif" font-weight="bold" font-size="32.00" fill="#29235c">id</text>
<text text-anchor="start" x="129.2" y="-411.01" font-family="Helvetica,sans-Serif" font-size="32.00" fill="#29235c"> &#160;&#160;&#160;</text>
<text text-anchor="start" x="339.78" y="-411.01" font-family="Helvetica,sans-Serif" font-style="italic" font-size="32.00" fill="#29235c">serial</text>
<text text-anchor="start" x="416.22" y="-411.01" font-family="Helvetica,sans-Serif" font-size="32.00" fill="#29235c"> </text>
<text text-anchor="start" x="425.11" y="-411.01" font-family="Helvetica,sans-Serif" font-weight="bold" font-size="32.00" fill="#29235c">(!)</text>
<polygon fill="#e7e2dd" stroke="transparent" points="93.31,-329.81 93.31,-389.81 466.31,-389.81 466.31,-329.81 93.31,-329.81"/>
<polygon fill="none" stroke="#29235c" points="93.31,-329.81 93.31,-389.81 466.31,-389.81 466.31,-329.81 93.31,-329.81"/>
<text text-anchor="start" x="104.31" y="-350.01" font-family="Helvetica,sans-Serif" font-size="32.00" fill="#29235c">admin_id &#160;&#160;&#160;</text>
<text text-anchor="start" x="357.51" y="-351.01" font-family="Helvetica,sans-Serif" font-style="italic" font-size="32.00" fill="#29235c">integer</text>
<polygon fill="#e7e2dd" stroke="transparent" points="93.31,-269.81 93.31,-329.81 466.31,-329.81 466.31,-269.81 93.31,-269.81"/>
<polygon fill="none" stroke="#29235c" points="93.31,-269.81 93.31,-329.81 466.31,-329.81 466.31,-269.81 93.31,-269.81"/>
<text text-anchor="start" x="104.31" y="-290.01" font-family="Helvetica,sans-Serif" font-size="32.00" fill="#29235c">user_id &#160;&#160;&#160;</text>
<text text-anchor="start" x="318.41" y="-291.01" font-family="Helvetica,sans-Serif" font-style="italic" font-size="32.00" fill="#29235c">integer</text>
<text text-anchor="start" x="416.22" y="-291.01" font-family="Helvetica,sans-Serif" font-size="32.00" fill="#29235c"> </text>
<text text-anchor="start" x="425.11" y="-291.01" font-family="Helvetica,sans-Serif" font-weight="bold" font-size="32.00" fill="#29235c">(!)</text>
<polygon fill="#e7e2dd" stroke="transparent" points="93.31,-209.81 93.31,-269.81 466.31,-269.81 466.31,-209.81 93.31,-209.81"/>
<polygon fill="none" stroke="#29235c" points="93.31,-209.81 93.31,-269.81 466.31,-269.81 466.31,-209.81 93.31,-209.81"/>
<text text-anchor="start" x="104.31" y="-230.01" font-family="Helvetica,sans-Serif" font-size="32.00" fill="#29235c">team_id &#160;&#160;&#160;</text>
<text text-anchor="start" x="309.54" y="-231.01" font-family="Helvetica,sans-Serif" font-style="italic" font-size="32.00" fill="#29235c">varchar</text>
<text text-anchor="start" x="416.22" y="-231.01" font-family="Helvetica,sans-Serif" font-size="32.00" fill="#29235c"> </text>
<text text-anchor="start" x="425.11" y="-231.01" font-family="Helvetica,sans-Serif" font-weight="bold" font-size="32.00" fill="#29235c">(!)</text>
<polygon fill="#e7e2dd" stroke="transparent" points="93.31,-149.81 93.31,-209.81 466.31,-209.81 466.31,-149.81 93.31,-149.81"/>
<polygon fill="none" stroke="#29235c" points="93.31,-149.81 93.31,-209.81 466.31,-209.81 466.31,-149.81 93.31,-149.81"/>
<text text-anchor="start" x="104.31" y="-170.01" font-family="Helvetica,sans-Serif" font-size="32.00" fill="#29235c">role &#160;&#160;&#160;</text>
<text text-anchor="start" x="252.66" y="-171.01" font-family="Helvetica,sans-Serif" font-style="italic" font-size="32.00" fill="#29235c">varchar(50)</text>
<text text-anchor="start" x="416.22" y="-171.01" font-family="Helvetica,sans-Serif" font-size="32.00" fill="#29235c"> </text>
<text text-anchor="start" x="425.11" y="-171.01" font-family="Helvetica,sans-Serif" font-weight="bold" font-size="32.00" fill="#29235c">(!)</text>
<polygon fill="#e7e2dd" stroke="transparent" points="93.31,-89.81 93.31,-149.81 466.31,-149.81 466.31,-89.81 93.31,-89.81"/>
<polygon fill="none" stroke="#29235c" points="93.31,-89.81 93.31,-149.81 466.31,-149.81 466.31,-89.81 93.31,-89.81"/>
<text text-anchor="start" x="104.11" y="-110.01" font-family="Helvetica,sans-Serif" font-size="32.00" fill="#29235c">joined_at &#160;&#160;&#160;</text>
<text text-anchor="start" x="268.98" y="-111.01" font-family="Helvetica,sans-Serif" font-style="italic" font-size="32.00" fill="#29235c">timestamp</text>
<text text-anchor="start" x="416.54" y="-111.01" font-family="Helvetica,sans-Serif" font-size="32.00" fill="#29235c"> </text>
<text text-anchor="start" x="425.43" y="-111.01" font-family="Helvetica,sans-Serif" font-weight="bold" font-size="32.00" fill="#29235c">(!)</text>
<polygon fill="none" stroke="#29235c" stroke-width="2" points="91.81,-88.81 91.81,-510.81 466.81,-510.81 466.81,-88.81 91.81,-88.81"/>
</g>
<!-- team_members&#45;&gt;teams -->
<!-- team_members&#45;&gt;teams -->
<g id="edge14" class="edge">
<title>team_members:e&#45;&gt;teams:w</title>
<path fill="none" stroke="#29235c" stroke-width="3" d="M467.31,-239.81C638.78,-239.81 528.44,-962.25 688.35,-991.88"/>
<polygon fill="#29235c" stroke="#29235c" stroke-width="3" points="688.48,-995.4 698.75,-992.81 689.11,-988.43 688.48,-995.4"/>
<text text-anchor="middle" x="689.86" y="-964.01" font-family="Helvetica,sans-Serif" font-size="32.00" fill="#29235c">1</text>
<text text-anchor="middle" x="461.08" y="-249.41" font-family="Helvetica,sans-Serif" font-size="32.00" fill="#29235c">*</text>
</g>
<!-- team_members&#45;&gt;users -->
<!-- team_members&#45;&gt;users -->
<g id="edge10" class="edge">
<title>team_members:e&#45;&gt;users:w</title>
<path fill="none" stroke="#29235c" stroke-width="3" d="M467.31,-359.81C652.72,-359.81 1165.55,-298.98 1298.89,-427.81 1464.49,-587.8 1195.27,-1446.26 1410.42,-1472.21"/>
<polygon fill="#29235c" stroke="#29235c" stroke-width="3" points="1410.5,-1475.72 1420.69,-1472.81 1410.91,-1468.73 1410.5,-1475.72"/>
<text text-anchor="middle" x="1411.79" y="-1482.41" font-family="Helvetica,sans-Serif" font-size="32.00" fill="#29235c">1</text>
<text text-anchor="middle" x="461.08" y="-369.41" font-family="Helvetica,sans-Serif" font-size="32.00" fill="#29235c">*</text>
</g>
<!-- team_members&#45;&gt;users -->
<!-- team_members&#45;&gt;users -->
<g id="edge12" class="edge">
<title>team_members:e&#45;&gt;users:w</title>
<path fill="none" stroke="#29235c" stroke-width="3" d="M467.31,-299.81C837.35,-299.81 1029.77,-86.84 1298.89,-340.81 1480.39,-512.09 1176.2,-1446.76 1410.62,-1472.28"/>
<polygon fill="#29235c" stroke="#29235c" stroke-width="3" points="1410.51,-1475.78 1420.69,-1472.81 1410.88,-1468.79 1410.51,-1475.78"/>
<text text-anchor="middle" x="1411.79" y="-1444.01" font-family="Helvetica,sans-Serif" font-size="32.00" fill="#29235c">1</text>
<text text-anchor="middle" x="461.08" y="-309.41" font-family="Helvetica,sans-Serif" font-size="32.00" fill="#29235c">*</text>
</g>
<!-- teams&#45;&gt;users -->
<!-- teams&#45;&gt;users -->
<g id="edge16" class="edge">
<title>teams:e&#45;&gt;users:w</title>
<path fill="none" stroke="#29235c" stroke-width="3" d="M1194.75,-1052.81C1403.2,-1052.81 1215.19,-1458.98 1410.46,-1472.47"/>
<polygon fill="#29235c" stroke="#29235c" stroke-width="3" points="1410.57,-1475.98 1420.69,-1472.81 1410.81,-1468.98 1410.57,-1475.98"/>
<text text-anchor="middle" x="1429.58" y="-1482.41" font-family="Helvetica,sans-Serif" font-size="32.00" fill="#29235c">1</text>
<text text-anchor="middle" x="1200.98" y="-1062.41" font-family="Helvetica,sans-Serif" font-size="32.00" fill="#29235c">*</text>
</g>
</g>
</svg>
